<?xml version="1.0" encoding="UTF-8" standalone="no"?>
<!-- Created with Inkscape (http://www.inkscape.org/) -->

<svg
   xmlns:dc="http://purl.org/dc/elements/1.1/"
   xmlns:cc="http://creativecommons.org/ns#"
   xmlns:rdf="http://www.w3.org/1999/02/22-rdf-syntax-ns#"
   xmlns:svg="http://www.w3.org/2000/svg"
   xmlns="http://www.w3.org/2000/svg"
   xmlns:sodipodi="http://sodipodi.sourceforge.net/DTD/sodipodi-0.dtd"
   xmlns:inkscape="http://www.inkscape.org/namespaces/inkscape"
   width="173.01231"
   height="173.01231"
   id="svg2"
   version="1.1"
   inkscape:version="0.48.2 r9819"
   sodipodi:docname="purple_rounded_arrows.svg">
  <defs
     id="defs4">
    <radialGradient
       id="XMLID_2_"
       gradientUnits="userSpaceOnUse"
       cy="68.532997"
       cx="68.591003"
       gradientTransform="matrix(-0.94622,0,0,0.94622,133.84,3.6856)"
       r="63.738998">
      <stop
         id="stop8"
         style="stop-color:#D4E4F7"
         offset="0" />
      <stop
         id="stop10"
         style="stop-color:#7FB5F7"
         offset="1" />
    </radialGradient>
  </defs>
  <sodipodi:namedview
     id="base"
     pagecolor="#ffffff"
     bordercolor="#666666"
     borderopacity="1.0"
     inkscape:pageopacity="0.0"
     inkscape:pageshadow="2"
     inkscape:zoom="2.2339417"
     inkscape:cx="86.506155"
     inkscape:cy="86.506155"
     inkscape:document-units="px"
     inkscape:current-layer="layer1"
     showgrid="false"
     fit-margin-top="5"
     fit-margin-left="5"
     fit-margin-right="5"
     fit-margin-bottom="5"
     inkscape:window-width="1019"
     inkscape:window-height="733"
     inkscape:window-x="0"
     inkscape:window-y="0"
     inkscape:window-maximized="0" />
  <metadata
     id="metadata7">
    <rdf:RDF>
      <cc:Work
         rdf:about="">
        <dc:format>image/svg+xml</dc:format>
        <dc:type
           rdf:resource="http://purl.org/dc/dcmitype/StillImage" />
        <dc:title></dc:title>
      </cc:Work>
    </rdf:RDF>
  </metadata>
  <g
     inkscape:label="Layer 1"
     inkscape:groupmode="layer"
     id="layer1"
     transform="translate(-313.29381,-322.11814)">
    <path
       style="fill:#cccccc;fill-opacity:1;stroke:none;stroke-opacity:1"
       d="m 443.73685,440.24762 c 11.562,-9.227 23.126,-18.45 34.687,-27.671 6.156,-4.911 -1.117,-9.037 -4.984,-12.135 -7.625,-6.107 -15.251,-12.216 -22.879,-18.324 -2.152,-1.7242 -4.3039,-3.4493 -6.4568,-5.1726 -2.0656,-1.6552 -8.8352,-2.093 -8.8352,1.8557 v 19.878 28.856 8.8509 c 9.1e-4,4.2862 4.8203,6.7856 8.4679,3.8586"
       id="path20"
       inkscape:connector-curvature="0" />
    <path
       inkscape:connector-curvature="0"
       id="path4076"
       d="m 355.86308,440.24762 c -11.562,-9.227 -23.126,-18.45 -34.687,-27.671 -6.156,-4.911 1.117,-9.037 4.984,-12.135 7.625,-6.107 15.251,-12.216 22.879,-18.324 2.152,-1.7242 4.3039,-3.4493 6.4568,-5.1726 2.0656,-1.6552 8.8352,-2.093 8.8352,1.8557 v 19.878 28.856 8.8509 c -9.1e-4,4.2862 -4.8203,6.7856 -8.4679,3.8586"
       style="fill:#cccccc;fill-opacity:1;stroke:none;stroke-opacity:1" />
    <path
       inkscape:connector-curvature="0"
       id="path4078"
       d="m 368.17664,452.56118 c 9.227,11.562 18.45,23.126 27.671,34.687 4.911,6.156 9.037,-1.117 12.135,-4.984 6.107,-7.625 12.216,-15.251 18.324,-22.879 1.7242,-2.152 3.4493,-4.3039 5.1726,-6.4568 1.6552,-2.0656 2.093,-8.8352 -1.8557,-8.8352 l -19.878,0 -28.856,0 -8.8509,0 c -4.2862,9.1e-4 -6.7856,4.8203 -3.8586,8.4679"
       style="fill:#cccccc;fill-opacity:1;stroke:none;stroke-opacity:1" />
    <path
       style="fill:#cccccc;fill-opacity:1;stroke:none;stroke-opacity:1"
       d="m 368.17664,364.68741 c 9.227,-11.562 18.45,-23.126 27.671,-34.687 4.911,-6.156 9.037,1.117 12.135,4.984 6.107,7.625 12.216,15.251 18.324,22.879 1.7242,2.152 3.4493,4.3039 5.1726,6.4568 1.6552,2.0656 2.093,8.8352 -1.8557,8.8352 l -19.878,0 -28.856,0 -8.8509,0 c -4.2862,-9.1e-4 -6.7856,-4.8203 -3.8586,-8.4679"
       id="path4080"
       inkscape:connector-curvature="0" />
  </g>
</svg>
